{"title":"The Bachelorette Australia - S02E08","uid":16043439,"size":413959717,"categoryP":"video","categoryS":"tv_shows","magnet":"?xt=urn:btih:feddeb29d7d3a304867df450c84e24624818e04a&amp;dn=The+Bachelorette+Australia+-+S02E08&amp;tr=udp%3A%2F%2Ftracker.leechers-paradise.org%3A6969&amp;tr=udp%3A%2F%2Fzer0day.ch%3A1337&amp;tr=udp%3A%2F%2Fopen.demonii.com%3A1337&amp;tr=udp%3A%2F%2Ftracker.coppersurfer.tk%3A6969&amp;tr=udp%3A%2F%2Fexodus.desync.com%3A6969","seeders":9,"leechers":6,"uploader":"Bullrout","files":1,"time":1476536505,"description":"The Bachelorette Australia - S02E08\r\n\r\nHonouring the golden age of romance, Georgia picks her date up in a Aston Martin before enjoying a harbour cruise on a beautiful old boat. Will sparks fly or will he be friend-zoned?\r\n\r\nComplete name                            : The Bachelorette Australia - S02E08.mp4\r\nFormat                                   : MPEG-4\r\nFormat profile                           : Base Media / Version 2\r\nCodec ID                                 : mp42 (mp42/isom/avc1)\r\nFile size                                : 395 MiB\r\nDuration                                 : 49 min 57 s\r\nOverall bit rate mode                    : Variable\r\nOverall bit rate                         : 1 105 kb/s\r\n\r\nVideo\r\nID                                       : 2\r\nFormat                                   : AVC\r\nFormat/Info                              : Advanced Video Codec\r\nFormat profile                           :   \r\nFormat settings, CABAC                   : Yes\r\nFormat settings, ReFrames                : 3 frames\r\nCodec ID                                 : avc1\r\nCodec ID/Info                            : Advanced Video Coding\r\nDuration                                 : 49 min 57 s\r\nBit rate mode                            : Variable\r\nBit rate                                 : 973 kb/s\r\nMaximum bit rate                         : 1 000 kb/s\r\nWidth                                    : 720 pixels\r\nHeight                                   : 404 pixels\r\nDisplay aspect ratio                     : 16:9\r\nOriginal display aspect ratio            : 16:9\r\nFrame rate mode                          : Constant\r\nFrame rate                               : 25.000 FPS\r\nStandard                                 : PAL\r\nColor space                              : YUV\r\nChroma subsampling                       : 4:2:0\r\nBit depth                                : 8 bits\r\nScan type                                : Progressive\r\nBits/(Pixel*Frame)                       : 0.134\r\nStream size                              : 348 MiB (88%)\r\nWriting library                          : x264 core 112\r\nColor range                              : Limited\r\nColor primaries                          : BT.601 PAL\r\nTransfer characteristics                 : BT.470 System B, BT.470 System G\r\nMatrix coefficients                      : BT.601\r\n\r\nAudio\r\nID                                       : 1\r\nFormat                                   : AAC\r\nFormat/Info                              : Advanced Audio Codec\r\nFormat profile                           : LC\r\nCodec ID                                 : 40\r\nDuration                                 : 49 min 57 s\r\nBit rate mode                            : Variable\r\nBit rate                                 : 128 kb/s\r\nMaximum bit rate                         : 576 kb/s\r\nChannel(s)                               : 2 channels\r\nChannel positions                        : Front: L R\r\nSampling rate                            : 48.0 kHz\r\nFrame rate                               : 46.875 FPS (1024 spf)\r\nCompression mode                         : Lossy\r\nStream size                              : 45.8 MiB (12%)","torrent":{"xt":"urn:btih:feddeb29d7d3a304867df450c84e24624818e04a","amp;dn":"The+Bachelorette+Australia+-+S02E08","amp;tr":["udp%3A%2F%2Ftracker.leechers-paradise.org%3A6969","udp%3A%2F%2Fzer0day.ch%3A1337","udp%3A%2F%2Fopen.demonii.com%3A1337","udp%3A%2F%2Ftracker.coppersurfer.tk%3A6969","udp%3A%2F%2Fexodus.desync.com%3A6969"],"infoHash":"feddeb29d7d3a304867df450c84e24624818e04a","infoHashBuffer":{"type":"Buffer","data":[254,221,235,41,215,211,163,4,134,125,244,80,200,78,36,98,72,24,224,74]},"announce":[],"urlList":[]}}